# xmcd CD database file
#
# Track frame offsets:
#	150
#	6698
#	26589
#	45554
#	67079
#	81660
#	102443
#	124041
#	141130
#	161610
#	176668
#	190232
#
# Disc length: 2760 seconds
#
# Revision: 10
# Processed by: cddbd v1.5.2PL0 Copyright (c) Steve Scherf et al.
# Submitted via: CDex 1.51
#
DISCID=ad0ac60c
DTITLE=Anastazios - The remains of shade
DYEAR=2009
DGENRE=New Age
TTITLE0=Innocent rain
TTITLE1=In the shade of Budapest
TTITLE2=Sunny waves
TTITLE3=The distorting mirrors of time
TTITLE4=The castle, the river and the bird
TTITLE5=Glimpse of a smile
TTITLE6=Monopatia
TTITLE7=The remains of the days
TTITLE8=Homeland whispers
TTITLE9=Fast drive on a tropical boulevard
TTITLE10=The sand reveals
TTITLE11=In the shade of Budapest
EXTD=YEAR: 2009
EXTT0=
EXTT1=
EXTT2=
EXTT3=
EXTT4=
EXTT5=
EXTT6=
EXTT7=
EXTT8=
EXTT9=
EXTT10=
EXTT11=
PLAYORDER=
